<svg width="15" height="15" viewBox="0 0 15 15" fill="none" xmlns="http://www.w3.org/2000/svg">
<path fill-rule="evenodd" clip-rule="evenodd" d="M2.30691 1.24704C2.48844 0.530315 3.13775 0 3.91089 0C4.49083 0 5.00109 0.29838 5.29652 0.75H5.7803C6.08086 0.441551 6.50077 0.25 6.96544 0.25C7.64671 0.25 8.23183 0.661764 8.48548 1.25H8.89051C9.14431 1.09156 9.44419 0.999999 9.76544 0.999999C10.4467 0.999999 11.0318 1.41176 11.2855 2H12.3869C12.3963 2 12.4051 2.00254 12.4127 2.00696C12.463 2.00235 12.514 2 12.5654 2C13.4792 2 14.22 2.74076 14.22 3.65455V8.6158L14.22 8.625L14.22 8.6342V8.70566C14.22 8.73592 14.2191 8.76606 14.2175 8.79606C14.118 12.2378 11.0232 15 7.21998 15C3.35399 15 0.219986 12.1458 0.219986 8.625C0.219986 6.92552 0.950208 5.38134 2.1405 4.23853C2.13753 5.89535 2.16552 7.60822 2.29452 7.57884C2.63994 7.50009 2.37006 2.36834 2.30691 1.24704Z" fill="white"/>
</svg>
