<svg width="16" height="15" viewBox="0 0 16 15" fill="none" xmlns="http://www.w3.org/2000/svg">
<path fill-rule="evenodd" clip-rule="evenodd" d="M7.45014 13.2671C7.73512 13.3107 8.02697 13.3333 8.32416 13.3333C11.4883 13.3333 14.0533 10.7683 14.0533 7.60418C14.0533 4.44003 11.4883 1.875 8.32416 1.875C8.11187 1.875 7.90225 1.88655 7.69597 1.90905C9.26555 3.09817 10.3033 5.15807 10.3033 7.5C10.3033 9.96211 9.15631 12.1125 7.45014 13.2671ZM8.21998 15C12.3621 15 15.72 11.6421 15.72 7.5C15.72 3.35786 12.3621 0 8.21998 0C4.07784 0 0.719986 3.35786 0.719986 7.5C0.719986 11.6421 4.07784 15 8.21998 15Z" fill="white"/>
</svg>
