<svg width="11" height="15" viewBox="0 0 11 15" fill="none" xmlns="http://www.w3.org/2000/svg">
<path fill-rule="evenodd" clip-rule="evenodd" d="M10.606 10.1523C10.606 12.8296 8.42743 15 5.74 15C3.05256 15 0.873979 12.8296 0.873979 10.1523C0.873979 7.54836 5.47678 0.396929 5.72922 0.00667442C5.73499 -0.00222486 5.74504 -0.00222478 5.75078 0.00667451C6.00321 0.396929 10.606 7.54836 10.606 10.1523ZM4.92885 13.4458C2.4596 12.9056 2.88214 10.1703 2.88214 10.1703C2.88214 10.1703 3.5564 11.8215 5.19268 12.3563C6.82892 12.8912 8.80632 12.1067 8.80632 12.1067C8.80632 12.1067 7.3981 13.9861 4.92885 13.4458Z" fill="white"/>
</svg>
