<svg width="12" height="15" viewBox="0 0 12 15" fill="none" xmlns="http://www.w3.org/2000/svg">
<path fill-rule="evenodd" clip-rule="evenodd" d="M8.94507 11.5838C9.1304 10.9061 8.77066 9.51299 8.77066 9.51299C8.77066 9.51299 8.50974 10.6479 8.10205 11.0674C7.75424 11.4252 7.32811 11.6734 6.71698 11.7386C7.21664 11.4959 7.56026 10.9898 7.56026 10.4049C7.56026 9.58386 6.88315 8.91824 6.0479 8.91824C5.21264 8.91824 4.5355 9.58386 4.5355 10.4049C4.5355 10.6292 4.58604 10.8418 4.67648 11.0325C4.15406 10.6163 4.07191 9.94905 4.07191 9.94905C4.07191 9.94905 3.48855 12.371 5.09595 13.5103C6.70333 14.6496 9.85213 13.6703 9.85213 13.6703C9.85213 13.6703 5.346 16.8409 2.00692 13.3901C-0.869426 10.4175 1.25619 6.504 1.25619 6.504C1.25619 6.504 1.16439 6.86704 1.16439 7.28848C1.16439 7.70992 1.39289 8.03057 1.39289 8.03057C1.39289 8.03057 2.07448 6.59388 2.60493 6.00961C3.10696 5.45666 3.73628 5.00819 4.27986 4.62082C4.69828 4.32264 5.0659 4.06067 5.28545 3.81513C6.49473 2.46295 5.75326 0 5.75326 0C5.75326 0 7.11644 1.20176 7.49701 2.75384C7.64209 3.34547 7.54875 4.01862 7.46531 4.62059C7.32984 5.59782 7.22036 6.38745 8.19902 6.33621C9.78053 6.25339 8.40624 3.81513 8.40624 3.81513C8.40624 3.81513 11.9937 5.70068 11.7257 8.99839C11.4577 12.2961 7.80442 13.0458 7.80442 13.0458C7.80442 13.0458 8.75971 12.2615 8.94507 11.5838Z" fill="white"/>
</svg>
