<svg width="16" height="13" viewBox="0 0 16 13" fill="none" xmlns="http://www.w3.org/2000/svg">
<path fill-rule="evenodd" clip-rule="evenodd" d="M12.4416 6.1841C12.4408 6.18293 12.4404 6.18147 12.4407 6.18004L13.3957 0.611494C13.3961 0.60893 13.3983 0.607056 13.4009 0.607056H13.7032C13.7055 0.607056 13.7075 0.608567 13.7082 0.610789L15.8598 7.42296C15.8604 7.42507 15.8597 7.4274 15.8579 7.42878L14.2716 8.66732C14.2692 8.66916 14.2658 8.66869 14.264 8.66627L12.4416 6.1841ZM0.860001 9.87563C0.860001 9.87794 0.861486 9.87999 0.863681 9.88072L4.13374 10.9499C4.13532 10.9504 4.13708 10.9502 4.13845 10.9492L11.4478 5.90305C11.449 5.9022 11.4499 5.90089 11.4501 5.89942L12.2339 0.640046C12.2344 0.636818 12.2319 0.633918 12.2286 0.633918H5.75435C5.75274 0.633918 5.75125 0.634626 5.75022 0.635851L0.861229 6.53368C0.860435 6.53464 0.860001 6.53584 0.860001 6.5371V9.87563ZM5.49639 11.2223L9.06887 12.3926C9.07048 12.3931 9.07227 12.3929 9.07364 12.3919L13.3269 9.34096C13.3293 9.33929 13.3299 9.33604 13.3283 9.33365L11.7338 6.96097C11.7322 6.95848 11.7288 6.95784 11.7264 6.95954L5.49639 11.2223Z" fill="white"/>
</svg>
