<svg width="16" height="13" viewBox="0 0 16 13" fill="none" xmlns="http://www.w3.org/2000/svg">
<path fill-rule="evenodd" clip-rule="evenodd" d="M0.341463 6.5091C0.339468 6.5057 0.339467 6.50148 0.341461 6.49806L4.11326 0.0537392C4.11523 0.0503965 4.11883 0.0483398 4.1227 0.0483398H11.5986C11.6025 0.0483398 11.6061 0.0504141 11.6081 0.0537862L15.3385 6.49811C15.3405 6.50148 15.3405 6.50567 15.3385 6.50904L11.6081 12.9461C11.6061 12.9495 11.6025 12.9516 11.5986 12.9516H4.1227C4.11883 12.9516 4.11523 12.9495 4.11326 12.9462L0.341463 6.5091ZM11.3151 6.49996C11.3151 8.41856 9.75975 9.9739 7.84115 9.9739C5.92255 9.9739 4.36721 8.41856 4.36721 6.49996C4.36721 4.58133 5.92255 3.02602 7.84115 3.02602C9.75975 3.02602 11.3151 4.58133 11.3151 6.49996Z" fill="white"/>
</svg>
