<svg width="14" height="15" viewBox="0 0 14 15" fill="none" xmlns="http://www.w3.org/2000/svg">
<path fill-rule="evenodd" clip-rule="evenodd" d="M2.26954 13.0851C2.21609 13.0348 2.16322 12.9835 2.11097 12.9313C-0.647282 10.1731 -0.647282 5.70103 2.11097 2.94279C4.86922 0.184525 13.6581 0 13.6581 0C13.6581 0 14.8578 10.1731 12.0995 12.9313C9.64981 15.381 5.84837 15.655 3.09624 13.7535L5.31381 11.0321L8.85878 10.2668L5.96504 9.97748L7.80405 8.10501L9.8974 7.64643L8.2421 7.15622L9.8974 4.1701L7.5429 6.81106L6.63368 5.52802L6.95374 7.64643L5.31381 9.49518L4.55362 7.15619V10.2668L2.26954 13.0851Z" fill="white"/>
</svg>
