<svg width="15" height="15" viewBox="0 0 15 15" fill="none" xmlns="http://www.w3.org/2000/svg">
<path fill-rule="evenodd" clip-rule="evenodd" d="M12.9862 12.4579C12.9862 12.4579 11.0946 13.975 7.33033 13.3472C4.47445 12.8709 2.95126 9.72272 2.95126 8.03053C2.95126 4.01847 5.9207 3.10545 7.92825 3.10545C9.93578 3.10545 11.2454 5.0627 11.2454 6.5781C11.2454 8.09349 10.1736 9.41897 8.50564 9.41897C6.83771 9.41897 6.34371 8.24799 6.34371 7.17142C6.34371 6.09488 7.21471 5.71559 8.00906 5.71559C8.80342 5.71559 9.07541 6.39377 9.07541 6.97663C9.07541 7.55953 8.62316 7.76826 8.24595 7.76826C7.86875 7.76826 7.83145 7.57796 7.68709 7.37796C7.5427 7.17798 7.87121 6.42099 7.33033 6.42099C6.78945 6.42099 6.68863 7.29123 6.68863 7.29123C6.68863 7.29123 6.88582 8.97109 8.50564 8.94211C10.1255 8.9131 10.8939 7.66082 10.6706 6.42099C10.4473 5.18113 9.24403 3.86365 7.13226 4.12987C5.02049 4.39609 4.15828 6.52984 4.53833 8.81008C4.91838 11.0904 7.65011 12.4116 9.79795 11.9362C11.9458 11.4609 14.085 9.90594 14.085 5.96353C14.085 2.02109 10.6706 -0.348676 6.59923 0.0418739C2.52784 0.432422 0.000511959 3.9919 0.162283 8.26868C0.324055 12.5455 4.38222 14.8747 7.81381 14.9948C11.2454 15.1148 13.3491 13.1284 13.3491 13.1284C13.3491 13.1284 13.8222 12.7065 13.6367 12.377C13.4513 12.0476 12.9862 12.4579 12.9862 12.4579Z" fill="white"/>
</svg>
