<svg width="16" height="15" viewBox="0 0 16 15" fill="none" xmlns="http://www.w3.org/2000/svg">
<path fill-rule="evenodd" clip-rule="evenodd" d="M11.2891 14.9481C9.93612 15.0173 8.3871 15.0173 7.8607 14.9481C3.75451 14.4079 0.479996 11.4057 0.479996 7.34766C0.479996 3.28966 3.83786 0 7.98 0C12.1221 0 15.48 3.28966 15.48 7.34766C15.48 9.23499 14.7536 10.9561 13.5599 12.2574C13.2357 12.6108 13.6805 12.8586 14.1324 13.1105C14.5756 13.3575 15.0257 13.6083 14.7641 13.9662C14.4759 14.3605 12.9134 14.8649 11.2891 14.9481ZM6.92531 6.4292C6.92531 7.06324 6.40063 7.57726 5.75343 7.57726C5.10624 7.57726 4.58156 7.06324 4.58156 6.4292C4.58156 6.00395 4.81754 5.63273 5.1682 5.43431C5.18838 5.98717 5.64295 6.42917 6.20077 6.42917H6.92531V6.4292ZM10.5574 5.43431C10.5372 5.98717 10.0827 6.42917 9.52485 6.42917H8.80031V6.4292C8.80031 7.06324 9.32499 7.57726 9.97218 7.57726C10.6194 7.57726 11.1441 7.06324 11.1441 6.4292C11.1441 6.00395 10.9081 5.63273 10.5574 5.43431Z" fill="white"/>
</svg>
