<svg width="16" height="15" viewBox="0 0 16 15" fill="none" xmlns="http://www.w3.org/2000/svg">
<path fill-rule="evenodd" clip-rule="evenodd" d="M3.96961 11.8943L6.37561 11.1966L8.45371 14.9963C8.45643 15.0012 8.46349 15.0012 8.46619 14.9963L10.5443 11.1966L12.9503 11.8943C12.9557 11.8958 12.9607 11.8908 12.9591 11.8854L12.2613 9.52704L15.9562 7.50623C15.9612 7.50353 15.9612 7.49647 15.9563 7.49377L12.2309 5.45628L12.9591 2.99497C12.9607 2.98958 12.9557 2.98457 12.9503 2.98612L10.4879 3.70014L8.46619 0.00369704C8.46349 -0.00123226 8.45643 -0.0012324 8.45374 0.00369692L6.43207 3.70014L3.96961 2.98612C3.96422 2.98457 3.95921 2.98958 3.96082 2.99497L4.68902 5.45628L0.963658 7.49377C0.958729 7.49647 0.958729 7.50353 0.963658 7.50623L4.65855 9.52704L3.96082 11.8854C3.95921 11.8908 3.96422 11.8958 3.96961 11.8943ZM5.83665 7.52591L7.54117 8.45814L8.47339 10.1626C8.47609 10.1676 8.48318 10.1676 8.48588 10.1626L9.4181 8.45814L11.1226 7.52591C11.1275 7.52322 11.1275 7.51613 11.1226 7.51343L9.4181 6.5812L8.48588 4.87671C8.48318 4.87176 8.47609 4.87176 8.47339 4.87671L7.54117 6.5812L5.83665 7.51343C5.83172 7.51613 5.83172 7.52322 5.83665 7.52591Z" fill="white"/>
</svg>
