<svg width="14" height="15" viewBox="0 0 14 15" fill="none" xmlns="http://www.w3.org/2000/svg">
<path fill-rule="evenodd" clip-rule="evenodd" d="M9.26237 0.0146861C9.27329 -0.000891719 9.29474 -0.00467756 9.31033 0.00623019L10.3754 0.75201C10.391 0.762917 10.3948 0.784386 10.3839 0.799964L8.90145 2.91706C9.62214 3.1473 10.1131 3.39565 10.1131 3.39565C10.1131 3.39565 8.913 5.46 6.87745 5.46C4.8419 5.46 3.39546 3.53598 3.39546 3.53598C3.39546 3.53598 3.90834 3.20867 4.6686 2.92795L3.0426 0.99018C3.03038 0.97561 3.03229 0.953892 3.04685 0.941669L4.04287 0.1059C4.05746 0.0936759 4.07917 0.0955758 4.09139 0.110144L6.15017 2.5637C6.32645 2.54376 6.50604 2.53262 6.68728 2.53262C6.94776 2.53262 7.20792 2.55242 7.4619 2.58603L9.26237 0.0146861ZM9.66509 5.55776C10.2083 5.16981 11.0303 4.15723 11.0303 4.15723C11.0303 4.15723 13.1298 5.82103 13.1298 9.3489C13.1298 12.8767 9.5 15 9.5 15C9.5 15 7.76574 13.2486 7.33999 11.0284C6.91427 8.80821 7.96977 6.34296 7.96977 6.34296C7.96977 6.34296 9.12186 5.94572 9.66509 5.55776ZM3.81491 5.55776C3.27171 5.16981 2.44974 4.15723 2.44974 4.15723C2.44974 4.15723 0.350176 5.82103 0.350176 9.3489C0.350176 12.8767 3.98 15 3.98 15C3.98 15 5.71425 13.2486 6.14 11.0284C6.56572 8.80821 5.51023 6.34296 5.51023 6.34296C5.51023 6.34296 4.35814 5.94572 3.81491 5.55776Z" fill="white"/>
</svg>
