<svg width="16" height="15" viewBox="0 0 16 15" fill="none" xmlns="http://www.w3.org/2000/svg">
<path d="M7.3766 2.79028L3.65114 0.94519L3.76382 5.06901L7.28135 6.81111L7.3766 2.79028Z" fill="white"/>
<path d="M11.5126 5.11923L11.4653 0.962158L7.84206 2.93472L7.88677 6.85979L11.5126 5.11923Z" fill="white"/>
<path d="M11.5105 9.56573L15.0999 7.51268L11.5087 5.6239L7.91908 7.50943L11.5105 9.56573Z" fill="white"/>
<path d="M7.28078 7.51268L3.69146 9.56573L0.0999908 7.50943L3.68959 5.6239L7.28078 7.51268Z" fill="white"/>
<path d="M11.5667 14.0173L7.8412 12.1722L7.93645 8.15137L11.454 9.89349L11.5667 14.0173Z" fill="white"/>
<path d="M3.73244 9.89779L3.77979 14.0549L7.40301 12.0823L7.3583 8.15723L3.73244 9.89779Z" fill="white"/>
</svg>
