<svg width="16" height="11" viewBox="0 0 16 11" fill="none" xmlns="http://www.w3.org/2000/svg">
<path fill-rule="evenodd" clip-rule="evenodd" d="M4.26361 10.8952C4.25953 10.8952 4.25669 10.8912 4.25804 10.8873L8.08759 0.0664259C8.08844 0.0640733 8.09067 0.0625 8.09316 0.0625H12.1813C12.1838 0.0625 12.1861 0.0640851 12.1869 0.0664522L15.9596 10.8874C15.961 10.8912 15.9581 10.8952 15.9541 10.8952H4.37868H4.26361ZM0.965859 10.9375C0.961745 10.9375 0.958898 10.9334 0.960341 10.9296L3.8121 3.31611C3.81296 3.31379 3.81516 3.31227 3.81762 3.31227H6.29547C6.29957 3.31227 6.30241 3.31634 6.30101 3.32018L3.54344 10.9336C3.54259 10.936 3.54038 10.9375 3.5379 10.9375H0.965859Z" fill="white"/>
</svg>
